Coordinates
version=1
nRows=17
nColumns=24
inDegrees=yes

Units are S.I. units (second, meters, Newtons, ...)
Angles are in degrees.

endheader
time	pelvis_tilt	pelvis_list	pelvis_rotation	pelvis_tx	pelvis_ty	pelvis_tz	hip_flexion_r	hip_adduction_r	hip_rotation_r	knee_angle_r	ankle_angle_r	subtalar_angle_r	mtp_angle_r	hip_flexion_l	hip_adduction_l	hip_rotation_l	knee_angle_l	ankle_angle_l	subtalar_angle_l	mtp_angle_l	lumbar_extension	lumbar_bending	lumbar_rotation
      6.02000000	     -1.64915343	     -1.34348558	     -1.56292002	      1.41888368	      0.67395508	     -0.17273191	     -4.77536679	      7.96068912	      4.49202338	     -2.99186314	     18.38832650	     -6.56516364	      0.00000000	     29.87997146	     -4.14236411	     -0.17431212	    -35.11764303	     -0.20889409	    -31.24995887	      0.00000000	    -12.31170120	     -6.78956479	      2.77497800
      6.03000000	     -1.49231832	     -1.88335625	     -2.50388340	      1.42919182	      0.67251434	     -0.17265808	     -6.40161658	      8.30029553	      5.21083975	     -2.18840138	     18.79865938	     -6.16227979	      0.00000000	     29.07838138	     -5.19030218	      0.02989299	    -29.97135881	     -0.76924876	    -31.19403436	      0.00000000	    -12.27147817	     -6.17282614	      3.40397359
      6.04000000	     -1.47927419	     -2.63543168	     -3.46537204	      1.43976734	      0.67062082	     -0.17256361	     -7.96535794	      8.81418909	      5.92834620	     -1.33147742	     19.24863741	     -5.65948053	      0.00000000	     28.37170819	     -6.53878679	     -0.09683345	    -24.82710263	     -1.09631911	    -30.43112605	      0.00000000	    -12.01724465	     -5.30591598	      4.13592790
      6.05000000	     -1.38296940	     -3.41641211	     -4.39427096	      1.45065283	      0.66854789	     -0.17250584	     -9.73017006	      9.29294603	      6.62682529	     -0.37371109	     19.64285438	     -5.06611296	      0.00000000	     27.53452892	     -7.94705725	     -0.77115430	    -19.72964777	     -1.27957240	    -28.83481809	      0.00000000	    -11.84530642	     -4.41612132	      4.76258324
      6.06000000	     -1.33217221	     -4.22056906	     -5.31462400	      1.46174449	      0.66621696	     -0.17249433	    -11.48764719	      9.74169829	      7.28697095	      0.56603256	     20.01210094	     -4.53282650	      0.00000000	     26.80304244	     -9.38362613	     -2.15737444	    -14.91108271	     -0.98111602	    -25.83591991	      0.00000000	    -11.62175107	     -3.49716491	      5.45829285
      6.07000000	     -1.33413507	     -4.88546983	     -6.22263955	      1.47302350	      0.66369656	     -0.17258297	    -13.21805618	      9.98498845	      8.02682100	      1.50729782	     20.38803488	     -4.03840277	      0.00000000	     26.16679345	    -10.59602995	     -4.10708274	    -10.40704875	     -0.74879916	    -22.04408379	      0.00000000	    -11.32752746	     -2.72985980	      6.08438605
      6.08000000	     -1.36275680	     -5.35870510	     -7.06303989	      1.48441061	      0.66105663	     -0.17281771	    -14.89600285	      9.98495139	      8.80919612	      2.41032381	     20.79686796	     -3.61602903	      0.00000000	     25.61914062	    -11.46473155	     -6.24001438	     -6.31019924	     -0.76655871	    -17.77679894	      0.00000000	    -11.01081652	     -2.17173846	      6.53017885
      6.09000000	     -1.45139712	     -5.66501273	     -7.86502008	      1.49579421	      0.65833434	     -0.17319069	    -16.39077206	      9.79082226	      9.56011073	      3.13726267	     21.21068378	     -3.31297638	      0.00000000	     25.15995737	    -12.02633838	     -7.99266811	     -2.63890424	     -1.18130500	    -13.68504009	      0.00000000	    -10.64743629	     -1.78418981	      6.96063539
      6.10000000	     -1.61820997	     -5.88549082	     -8.61532063	      1.50710192	      0.65556212	     -0.17362596	    -17.62008166	      9.53184883	     10.20517233	      3.57223473	     21.60856325	     -3.16590586	      0.00000000	     24.82260114	    -12.42733770	     -9.08406236	      0.50798839	     -1.97403271	    -10.20472262	      0.00000000	    -10.23710637	     -1.50043073	      7.35513845
      6.11000000	     -1.69414526	     -5.94299745	     -9.29063388	      1.51845780	      0.65290893	     -0.17414567	    -18.78335518	      9.10630849	     10.78999985	      3.76357703	     22.15778092	     -2.90416930	      0.00000000	     24.36802766	    -12.60431694	     -9.26420844	      3.12857421	     -3.19967693	     -8.31774329	      0.00000000	     -9.93048047	     -1.43666250	      7.64665092
      6.12000000	     -1.62289683	     -5.88783001	     -9.85561281	      1.52980262	      0.65052779	     -0.17477944	    -19.88010798	      8.59363666	     11.14423967	      3.62426451	     22.67966506	     -2.75244191	      0.00000000	     23.98667593	    -12.63506334	     -9.41335789	      4.70316897	     -3.93637476	     -6.63414126	      0.00000000	     -9.81764109	     -1.53623323	      7.81149675
      6.13000000	     -1.47603757	     -5.73850211	    -10.27173828	      1.54118758	      0.64841463	     -0.17559074	    -20.82021137	      8.05100668	     11.20282825	      3.10967544	     23.17258575	     -2.60374205	      0.00000000	     23.85905901	    -12.50216658	     -9.76864181	      5.03753850	     -4.11087324	     -5.20092618	      0.00000000	     -9.79363979	     -1.76714908	      7.81428745
      6.14000000	     -1.38391614	     -5.44112773	    -10.69854697	      1.55277514	      0.64647331	     -0.17648587	    -21.52633168	      7.38213920	     11.27328940	      2.30459235	     23.57849181	     -2.61443865	      0.00000000	     23.97342235	    -12.21029127	    -10.01976112	      4.33116797	     -4.28377390	     -5.20946555	      0.00000000	     -9.61662290	     -2.17495921	      7.93564988
      6.15000000	     -1.08337104	     -5.07056861	    -11.04317249	      1.56460087	      0.64496066	     -0.17754802	    -22.29426232	      6.64048970	     11.04374501	      1.23938268	     23.85130713	     -2.53524135	      0.00000000	     24.11541317	    -11.76912453	    -10.61802966	      2.59623176	     -4.37225582	     -5.66091225	      0.00000000	     -9.62535444	     -2.70498170	      8.05386342
      6.16000000	     -0.86935226	     -4.57584987	    -11.35140576	      1.57676527	      0.64359950	     -0.17873480	    -22.87606156	      5.80280900	     10.76920910	      0.02399030	     23.86794321	     -2.61166891	      0.00000000	     24.48603189	    -11.21011659	    -11.20456828	      0.16208130	     -4.61702148	     -6.70095565	      0.00000000	     -9.40138650	     -3.35215528	      8.21908435
      6.17000000	     -0.58207748	     -4.00817971	    -11.61967436	      1.58924304	      0.64255938	     -0.18006010	    -23.42091133	      4.88197010	     10.23397991	     -1.38958374	     23.80095979	     -2.37025809	      0.00000000	     24.65919210	    -10.50942642	    -11.01375156	     -2.28583796	     -6.01361130	     -9.51541646	      0.00000000	     -9.16468596	     -4.08544487	      8.36725035
      6.18000000	     -0.42064963	     -3.23932377	    -11.79779540	      1.60195441	      0.64174390	     -0.18150966	    -23.78654217	      3.80728540	      9.82730573	     -2.80325910	     23.26440688	     -2.54906867	      0.00000000	     24.99676978	     -9.59357511	    -10.63902101	     -4.79321515	     -7.84240607	    -12.39126406	      0.00000000	     -8.66610058	     -5.01082905	      8.45119034
